<svg width="90" height="86" viewBox="0 0 90 86" fill="none" xmlns="http://www.w3.org/2000/svg">
<g filter="url(#filter0_f_50_27)">
<rect x="17.9283" y="18" width="53.8422" height="50.7014" rx="21.0882" fill="#FFEF9A"/>
</g>
<g filter="url(#filter1_i_50_27)">
<path d="M68.181 47.3883C68.181 60.274 57.7351 70.7199 44.8494 70.7199C31.9637 70.7199 21.5178 60.274 21.5178 47.3883C21.5178 34.5026 31.9637 24.0566 44.8494 24.0566C57.7351 24.0566 68.181 34.5026 68.181 47.3883Z" fill="url(#paint0_linear_50_27)"/>
</g>
<g filter="url(#filter2_b_50_27)">
<g filter="url(#filter3_i_50_27)">
<path d="M58.1587 59.4201C58.3209 58.4993 58.4055 57.5522 58.4055 56.5854C58.4055 47.5415 51.0056 40.21 41.8774 40.21C35.0913 40.21 29.2604 44.2619 26.715 50.057C24.6529 48.293 21.977 47.228 19.0528 47.228C12.5327 47.228 7.24705 52.523 7.24705 59.0547C7.24705 59.4184 7.26344 59.7783 7.29552 60.1337C4.15944 61.6556 2.00003 64.849 2.00003 68.5421C2.00003 73.71 6.22854 77.8995 11.4447 77.8995H56.0443C61.2604 77.8995 65.489 73.71 65.489 68.5421C65.489 64.0943 62.3569 60.3714 58.1587 59.4201Z" fill="url(#paint1_linear_50_27)"/>
</g>
</g>
<defs>
<filter id="filter0_f_50_27" x="0.653913" y="0.72563" width="88.3909" height="85.2499" filterUnits="userSpaceOnUse" color-interpolation-filters="sRGB">
<feFlood flood-opacity="0" result="BackgroundImageFix"/>
<feBlend mode="normal" in="SourceGraphic" in2="BackgroundImageFix" result="shape"/>
<feGaussianBlur stdDeviation="8.63719" result="effect1_foregroundBlur_50_27"/>
</filter>
<filter id="filter1_i_50_27" x="21.5178" y="24.0566" width="46.6632" height="47.7848" filterUnits="userSpaceOnUse" color-interpolation-filters="sRGB">
<feFlood flood-opacity="0" result="BackgroundImageFix"/>
<feBlend mode="normal" in="SourceGraphic" in2="BackgroundImageFix" result="shape"/>
<feColorMatrix in="SourceAlpha" type="matrix" values="0 0 0 0 0 0 0 0 0 0 0 0 0 0 0 0 0 0 127 0" result="hardAlpha"/>
<feOffset dy="1.12171"/>
<feGaussianBlur stdDeviation="2.01908"/>
<feComposite in2="hardAlpha" operator="arithmetic" k2="-1" k3="1"/>
<feColorMatrix type="matrix" values="0 0 0 0 1 0 0 0 0 1 0 0 0 0 1 0 0 0 0.81 0"/>
<feBlend mode="normal" in2="shape" result="effect1_innerShadow_50_27"/>
</filter>
<filter id="filter2_b_50_27" x="-4.05725" y="34.1527" width="75.6034" height="49.8039" filterUnits="userSpaceOnUse" color-interpolation-filters="sRGB">
<feFlood flood-opacity="0" result="BackgroundImageFix"/>
<feGaussianBlur in="BackgroundImageFix" stdDeviation="3.02862"/>
<feComposite in2="SourceAlpha" operator="in" result="effect1_backgroundBlur_50_27"/>
<feBlend mode="normal" in="SourceGraphic" in2="effect1_backgroundBlur_50_27" result="shape"/>
</filter>
<filter id="filter3_i_50_27" x="2.00006" y="40.21" width="63.4889" height="39.9329" filterUnits="userSpaceOnUse" color-interpolation-filters="sRGB">
<feFlood flood-opacity="0" result="BackgroundImageFix"/>
<feBlend mode="normal" in="SourceGraphic" in2="BackgroundImageFix" result="shape"/>
<feColorMatrix in="SourceAlpha" type="matrix" values="0 0 0 0 0 0 0 0 0 0 0 0 0 0 0 0 0 0 127 0" result="hardAlpha"/>
<feOffset dy="2.46777"/>
<feGaussianBlur stdDeviation="1.12171"/>
<feComposite in2="hardAlpha" operator="arithmetic" k2="-1" k3="1"/>
<feColorMatrix type="matrix" values="0 0 0 0 1 0 0 0 0 1 0 0 0 0 1 0 0 0 1 0"/>
<feBlend mode="normal" in2="shape" result="effect1_innerShadow_50_27"/>
</filter>
<linearGradient id="paint0_linear_50_27" x1="41.3053" y1="60.0877" x2="60.5022" y2="26.4193" gradientUnits="userSpaceOnUse">
<stop stop-color="#FF9900"/>
<stop offset="1" stop-color="#FFEE94"/>
</linearGradient>
<linearGradient id="paint1_linear_50_27" x1="6.0382" y1="74.5344" x2="70.088" y2="26.6372" gradientUnits="userSpaceOnUse">
<stop stop-color="#DDDDDD"/>
<stop offset="1" stop-color="white" stop-opacity="0.58"/>
</linearGradient>
</defs>
</svg>
